<?xml version="1.0" encoding="UTF-8"?>
<mxfile host="app.diagrams.net" modified="2025-06-19T00:38:00.000Z" agent="5.0" etag="abc123" version="21.1.2" type="device">
  <diagram name="DXプロセスフロー" id="dx-process-flow">
    <mxGraphModel dx="1422" dy="794" grid="1" gridSize="10" guides="1" tooltips="1" connect="1" arrows="1" fold="1" page="1" pageScale="1" pageWidth="1169" pageHeight="827" math="0" shadow="0">
      <root>
        <mxCell id="0" />
        <mxCell id="1" parent="0" />
        
        <!-- 経営方針の確認・整理 -->
        <mxCell id="A" value="経営方針の確認・整理" style="rounded=1;whiteSpace=wrap;html=1;fillColor=#e1d5e7;strokeColor=#9673a6;fontSize=12;fontStyle=1;" vertex="1" parent="1">
          <mxGeometry x="80" y="40" width="140" height="60" as="geometry" />
        </mxCell>
        
        <!-- DX推進方針の確認・整理 -->
        <mxCell id="B" value="DX推進方針の確認・整理" style="rounded=1;whiteSpace=wrap;html=1;fillColor=#d5e8d4;strokeColor=#82b366;fontSize=12;fontStyle=1;" vertex="1" parent="1">
          <mxGeometry x="80" y="140" width="140" height="60" as="geometry" />
        </mxCell>
        
        <!-- AI推進方針の確認・整理 -->
        <mxCell id="C" value="AI推進方針の確認・整理" style="rounded=1;whiteSpace=wrap;html=1;fillColor=#fff2cc;strokeColor=#d6b656;fontSize=12;fontStyle=1;" vertex="1" parent="1">
          <mxGeometry x="80" y="240" width="140" height="60" as="geometry" />
        </mxCell>
        
        <!-- 現状業務の棚卸し・課題抽出 -->
        <mxCell id="D" value="現状業務の棚卸し・課題抽出" style="rounded=1;whiteSpace=wrap;html=1;fillColor=#dae8fc;strokeColor=#6c8ebf;fontSize=12;fontStyle=1;" vertex="1" parent="1">
          <mxGeometry x="280" y="240" width="140" height="60" as="geometry" />
        </mxCell>
        
        <!-- ABC/ABM分析による重点施策の特定 -->
        <mxCell id="E" value="ABC/ABM分析による重点施策の特定" style="rounded=1;whiteSpace=wrap;html=1;fillColor=#f8cecc;strokeColor=#b85450;fontSize=12;fontStyle=1;" vertex="1" parent="1">
          <mxGeometry x="480" y="240" width="140" height="60" as="geometry" />
        </mxCell>
        
        <!-- 費用対効果の高い施策の選定 -->
        <mxCell id="F" value="費用対効果の高い施策の選定" style="rounded=1;whiteSpace=wrap;html=1;fillColor=#e1d5e7;strokeColor=#9673a6;fontSize=12;fontStyle=1;" vertex="1" parent="1">
          <mxGeometry x="680" y="240" width="140" height="60" as="geometry" />
        </mxCell>
        
        <!-- プロジェクトターゲットの設定 -->
        <mxCell id="G" value="プロジェクトターゲットの設定" style="rounded=1;whiteSpace=wrap;html=1;fillColor=#d5e8d4;strokeColor=#82b366;fontSize=12;fontStyle=1;" vertex="1" parent="1">
          <mxGeometry x="880" y="240" width="140" height="60" as="geometry" />
        </mxCell>
        
        <!-- プロジェクト基本方針の策定 -->
        <mxCell id="H" value="プロジェクト基本方針の策定" style="rounded=1;whiteSpace=wrap;html=1;fillColor=#fff2cc;strokeColor=#d6b656;fontSize=12;fontStyle=1;" vertex="1" parent="1">
          <mxGeometry x="880" y="340" width="140" height="60" as="geometry" />
        </mxCell>
        
        <!-- プロジェクト計画書の作成 -->
        <mxCell id="I" value="プロジェクト計画書の作成" style="rounded=1;whiteSpace=wrap;html=1;fillColor=#dae8fc;strokeColor=#6c8ebf;fontSize=12;fontStyle=1;" vertex="1" parent="1">
          <mxGeometry x="680" y="340" width="140" height="60" as="geometry" />
        </mxCell>
        
        <!-- パイロット導入・効果検証 -->
        <mxCell id="J" value="パイロット導入・効果検証" style="rounded=1;whiteSpace=wrap;html=1;fillColor=#f8cecc;strokeColor=#b85450;fontSize=12;fontStyle=1;" vertex="1" parent="1">
          <mxGeometry x="480" y="340" width="140" height="60" as="geometry" />
        </mxCell>
        
        <!-- 全社展開・継続的改善 -->
        <mxCell id="K" value="全社展開・継続的改善" style="rounded=1;whiteSpace=wrap;html=1;fillColor=#e1d5e7;strokeColor=#9673a6;fontSize=12;fontStyle=1;" vertex="1" parent="1">
          <mxGeometry x="280" y="340" width="140" height="60" as="geometry" />
        </mxCell>
        
        <!-- 矢印の定義 -->
        <mxCell id="arrow1" value="" style="edgeStyle=orthogonalEdgeStyle;rounded=0;orthogonalLoop=1;jettySize=auto;html=1;strokeWidth=2;strokeColor=#666666;" edge="1" parent="1" source="A" target="B">
          <mxGeometry relative="1" as="geometry" />
        </mxCell>
        
        <mxCell id="arrow2" value="" style="edgeStyle=orthogonalEdgeStyle;rounded=0;orthogonalLoop=1;jettySize=auto;html=1;strokeWidth=2;strokeColor=#666666;" edge="1" parent="1" source="B" target="C">
          <mxGeometry relative="1" as="geometry" />
        </mxCell>
        
        <mxCell id="arrow3" value="" style="edgeStyle=orthogonalEdgeStyle;rounded=0;orthogonalLoop=1;jettySize=auto;html=1;strokeWidth=2;strokeColor=#666666;" edge="1" parent="1" source="C" target="D">
          <mxGeometry relative="1" as="geometry" />
        </mxCell>
        
        <mxCell id="arrow4" value="" style="edgeStyle=orthogonalEdgeStyle;rounded=0;orthogonalLoop=1;jettySize=auto;html=1;strokeWidth=2;strokeColor=#666666;" edge="1" parent="1" source="D" target="E">
          <mxGeometry relative="1" as="geometry" />
        </mxCell>
        
        <mxCell id="arrow5" value="" style="edgeStyle=orthogonalEdgeStyle;rounded=0;orthogonalLoop=1;jettySize=auto;html=1;strokeWidth=2;strokeColor=#666666;" edge="1" parent="1" source="E" target="F">
          <mxGeometry relative="1" as="geometry" />
        </mxCell>
        
        <mxCell id="arrow6" value="" style="edgeStyle=orthogonalEdgeStyle;rounded=0;orthogonalLoop=1;jettySize=auto;html=1;strokeWidth=2;strokeColor=#666666;" edge="1" parent="1" source="F" target="G">
          <mxGeometry relative="1" as="geometry" />
        </mxCell>
        
        <mxCell id="arrow7" value="" style="edgeStyle=orthogonalEdgeStyle;rounded=0;orthogonalLoop=1;jettySize=auto;html=1;strokeWidth=2;strokeColor=#666666;" edge="1" parent="1" source="G" target="H">
          <mxGeometry relative="1" as="geometry" />
        </mxCell>
        
        <mxCell id="arrow8" value="" style="edgeStyle=orthogonalEdgeStyle;rounded=0;orthogonalLoop=1;jettySize=auto;html=1;strokeWidth=2;strokeColor=#666666;" edge="1" parent="1" source="H" target="I">
          <mxGeometry relative="1" as="geometry" />
        </mxCell>
        
        <mxCell id="arrow9" value="" style="edgeStyle=orthogonalEdgeStyle;rounded=0;orthogonalLoop=1;jettySize=auto;html=1;strokeWidth=2;strokeColor=#666666;" edge="1" parent="1" source="I" target="J">
          <mxGeometry relative="1" as="geometry" />
        </mxCell>
        
        <mxCell id="arrow10" value="" style="edgeStyle=orthogonalEdgeStyle;rounded=0;orthogonalLoop=1;jettySize=auto;html=1;strokeWidth=2;strokeColor=#666666;" edge="1" parent="1" source="J" target="K">
          <mxGeometry relative="1" as="geometry" />
        </mxCell>
        
      </root>
    </mxGraphModel>
  </diagram>
</mxfile>
